<mxfile host="Electron" modified="2024-09-22T17:56:53.691Z" agent="Mozilla/5.0 (Windows NT 10.0; Win64; x64) AppleWebKit/537.36 (KHTML, like Gecko) draw.io/24.2.5 Chrome/120.0.6099.109 Electron/28.1.0 Safari/537.36" etag="1F4qoph7BtaI3rUPNwWP" version="24.2.5" type="device">
  <diagram name="Страница — 1" id="CaGl-Ic7NaH1gx2oDm2B">
    <mxGraphModel dx="2390" dy="1007" grid="0" gridSize="10" guides="1" tooltips="1" connect="1" arrows="1" fold="1" page="0" pageScale="1" pageWidth="827" pageHeight="1169" math="0" shadow="0">
      <root>
        <mxCell id="0" />
        <mxCell id="1" parent="0" />
        <mxCell id="l-SgXU7na3cR4uzJKPwT-1" value="&lt;img height=&quot;16&quot; width=&quot;16&quot; src=&quot;data:image/png;base64,iVBORw0KGgoAAAANSUhEUgAAABAAAAAQCAYAAAAf8/9hAAAABHNCSVQICAgIfAhkiAAAAAlwSFlzAAAAWQAAAFkBqp2phgAAABl0RVh0U29mdHdhcmUAd3d3Lmlua3NjYXBlLm9yZ5vuPBoAAAITSURBVDiNjZA/aBNRAMa/e/lrmuRymGrT2BZJL00tUu0fxKRFG9DBQcRScBHEQRFqRRDazcHaqRhwKuqgUicHURyiCHbQzcEhUqpVaxtME71LLsZLr5fLc+mV5BJJP3jLx+/73vceAMyAISoA2ugwxCQAOIYKMWCIOjy3arY4OTRS8vW94vL85IuytnlO9whoeUdhALCy3l3EZndVemYASNw9XwVSTUUx8x0OX7DKV8QkyqrirykghNyqAvO5Zjm1POr0h+aqilWFp2XNYVxG66ztAZCo94zOgZGL/q7exeBgdGp7AYAxA9cGwF3hlwC85PtHrqS+JmKnr86Q+P3p24G+YY7ZWvDUUOAGcBTAK72gydeZVoTkxLUHb0lbqA/plSXcuRAu7egJXCgybnU3a2xXeCMYPiXPvv9DI2cv0ZZAz5eGBVwoMm5x7dYGp9/R44+y1Nt7sujZ267u6eDXOY5j9T+oV/LLc2BoorC2GDs0+Zy49h8GKIXN22GXvn2Q6IbULUmS9L9w1c3RJ39pdL5A9524TB0+fh0cx+ocA0AB0ApAqMizJrtT7L/5hjjbDwKUYunhdWQTCyl5UwhBFPM6aAYwC+AnAOuWl3IHBqZM9qbt8OfHN5D9tJA2hvUFNfJ0Dz2zca1nWP4IhI9xFDMraVkRgsawvqBGWjHfksv8yCu/VxOw2OJyKReDKBbqsf8Aa8fUs+1j2QQAAAAASUVORK5CYII=&quot;&gt;&lt;font face=&quot;Comic Sans MS&quot;&gt;Employee&lt;/font&gt;&lt;font face=&quot;Comic Sans MS&quot;&gt;(&lt;span style=&quot;white-space-collapse: preserve;&quot; data-src-align=&quot;0:8&quot; class=&quot;EzKURWReUAB5oZgtQNkl&quot;&gt;Работник&lt;/span&gt;)&lt;/font&gt;" style="swimlane;fontStyle=1;align=center;verticalAlign=top;childLayout=stackLayout;horizontal=1;startSize=26;horizontalStack=0;resizeParent=1;resizeParentMax=0;resizeLast=0;collapsible=1;marginBottom=0;whiteSpace=wrap;html=1;fillColor=#ffe6cc;strokeColor=#d79b00;sketch=1;curveFitting=1;jiggle=2;shadow=1;" parent="1" vertex="1">
          <mxGeometry x="162" y="1109" width="193" height="176" as="geometry">
            <mxRectangle x="74" y="291" width="95" height="26" as="alternateBounds" />
          </mxGeometry>
        </mxCell>
        <mxCell id="l-SgXU7na3cR4uzJKPwT-15" value="&lt;img height=&quot;16&quot; width=&quot;16&quot; src=&quot;data:image/png;base64,iVBORw0KGgoAAAANSUhEUgAAABAAAAAQCAYAAAAf8/9hAAAABHNCSVQICAgIfAhkiAAAAAlwSFlzAAAOxAAADsQBlSsOGwAAABl0RVh0U29mdHdhcmUAd3d3Lmlua3NjYXBlLm9yZ5vuPBoAAAGVSURBVDiN7ZJPS1RhFMZ/57xdh6KICkUkmgpatGhtu/4QuJmy5s6dnTiUi1rXB5ivECqYm3BaJPd2s11WQlBkW8k2EUl/NolltHHMt/seF6UYCH2A+m3O5nkeeB4O/EcAkjR1oS1vKfRcfjleAIhb2TuMo2IsmpOr+UDtAWZSa927aXAF+BLUhhSgWHEngSOo9W9GG/t85LsDGhNsHDO5dCc7Y3A24A4hck2DjiuAiFWAN7/vHzgtPgG7kixTF6RswtzUYPXriYXX01iY11+yUDGz6wa9ya1074Y58tHjYDIPvMjq9WJrcLPZDHmjfkEv3r57GKRnudz5COxlKGnfhiio3TDT80BXtZU2thtRnboKIAc+Lj0EOYawWaNwP1/db8TPBMbE5PRWY5KmrjqRPZd4Ip1GmMXcLGb7TWzU7bTu0JYlH/nje0JorxalSbCZIMxpkOGODn/qx9qOXhEdUZByyfnhfDCeyRu1VOB94d1BhG+Rjz6vFqVFE5ZXvu8enRpIniLyZM1HH0R0RMyG/vIm/wTrdrioEt82JnkAAAAASUVORK5CYII=&quot;&gt;&amp;nbsp;&lt;font face=&quot;Comic Sans MS&quot;&gt;FirstName&lt;/font&gt;" style="text;strokeColor=none;fillColor=none;align=left;verticalAlign=top;spacingLeft=4;spacingRight=4;overflow=hidden;rotatable=0;points=[[0,0.5],[1,0.5]];portConstraint=eastwest;whiteSpace=wrap;html=1;" parent="l-SgXU7na3cR4uzJKPwT-1" vertex="1">
          <mxGeometry y="26" width="193" height="30" as="geometry" />
        </mxCell>
        <mxCell id="l-SgXU7na3cR4uzJKPwT-16" value="&lt;img height=&quot;16&quot; width=&quot;16&quot; src=&quot;data:image/png;base64,iVBORw0KGgoAAAANSUhEUgAAABAAAAAQCAYAAAAf8/9hAAAABHNCSVQICAgIfAhkiAAAAAlwSFlzAAAOxAAADsQBlSsOGwAAABl0RVh0U29mdHdhcmUAd3d3Lmlua3NjYXBlLm9yZ5vuPBoAAAGVSURBVDiN7ZJPS1RhFMZ/57xdh6KICkUkmgpatGhtu/4QuJmy5s6dnTiUi1rXB5ivECqYm3BaJPd2s11WQlBkW8k2EUl/NolltHHMt/seF6UYCH2A+m3O5nkeeB4O/EcAkjR1oS1vKfRcfjleAIhb2TuMo2IsmpOr+UDtAWZSa927aXAF+BLUhhSgWHEngSOo9W9GG/t85LsDGhNsHDO5dCc7Y3A24A4hck2DjiuAiFWAN7/vHzgtPgG7kixTF6RswtzUYPXriYXX01iY11+yUDGz6wa9ya1074Y58tHjYDIPvMjq9WJrcLPZDHmjfkEv3r57GKRnudz5COxlKGnfhiio3TDT80BXtZU2thtRnboKIAc+Lj0EOYawWaNwP1/db8TPBMbE5PRWY5KmrjqRPZd4Ip1GmMXcLGb7TWzU7bTu0JYlH/nje0JorxalSbCZIMxpkOGODn/qx9qOXhEdUZByyfnhfDCeyRu1VOB94d1BhG+Rjz6vFqVFE5ZXvu8enRpIniLyZM1HH0R0RMyG/vIm/wTrdrioEt82JnkAAAAASUVORK5CYII=&quot;&gt;&amp;nbsp;&lt;font face=&quot;Comic Sans MS&quot;&gt;LastName&lt;/font&gt;" style="text;strokeColor=none;fillColor=none;align=left;verticalAlign=top;spacingLeft=4;spacingRight=4;overflow=hidden;rotatable=0;points=[[0,0.5],[1,0.5]];portConstraint=eastwest;whiteSpace=wrap;html=1;" parent="l-SgXU7na3cR4uzJKPwT-1" vertex="1">
          <mxGeometry y="56" width="193" height="30" as="geometry" />
        </mxCell>
        <mxCell id="l-SgXU7na3cR4uzJKPwT-17" value="&lt;img height=&quot;16&quot; width=&quot;16&quot; src=&quot;data:image/png;base64,iVBORw0KGgoAAAANSUhEUgAAABAAAAAQCAYAAAAf8/9hAAAABHNCSVQICAgIfAhkiAAAAAlwSFlzAAAOxAAADsQBlSsOGwAAABl0RVh0U29mdHdhcmUAd3d3Lmlua3NjYXBlLm9yZ5vuPBoAAAGVSURBVDiN7ZJPS1RhFMZ/57xdh6KICkUkmgpatGhtu/4QuJmy5s6dnTiUi1rXB5ivECqYm3BaJPd2s11WQlBkW8k2EUl/NolltHHMt/seF6UYCH2A+m3O5nkeeB4O/EcAkjR1oS1vKfRcfjleAIhb2TuMo2IsmpOr+UDtAWZSa927aXAF+BLUhhSgWHEngSOo9W9GG/t85LsDGhNsHDO5dCc7Y3A24A4hck2DjiuAiFWAN7/vHzgtPgG7kixTF6RswtzUYPXriYXX01iY11+yUDGz6wa9ya1074Y58tHjYDIPvMjq9WJrcLPZDHmjfkEv3r57GKRnudz5COxlKGnfhiio3TDT80BXtZU2thtRnboKIAc+Lj0EOYawWaNwP1/db8TPBMbE5PRWY5KmrjqRPZd4Ip1GmMXcLGb7TWzU7bTu0JYlH/nje0JorxalSbCZIMxpkOGODn/qx9qOXhEdUZByyfnhfDCeyRu1VOB94d1BhG+Rjz6vFqVFE5ZXvu8enRpIniLyZM1HH0R0RMyG/vIm/wTrdrioEt82JnkAAAAASUVORK5CYII=&quot;&gt;&amp;nbsp;&lt;font face=&quot;Comic Sans MS&quot;&gt;Email&lt;/font&gt;" style="text;strokeColor=none;fillColor=none;align=left;verticalAlign=top;spacingLeft=4;spacingRight=4;overflow=hidden;rotatable=0;points=[[0,0.5],[1,0.5]];portConstraint=eastwest;whiteSpace=wrap;html=1;" parent="l-SgXU7na3cR4uzJKPwT-1" vertex="1">
          <mxGeometry y="86" width="193" height="30" as="geometry" />
        </mxCell>
        <mxCell id="l-SgXU7na3cR4uzJKPwT-2" value="&lt;img height=&quot;16&quot; width=&quot;16&quot; src=&quot;data:image/png;base64,iVBORw0KGgoAAAANSUhEUgAAABAAAAAQCAYAAAAf8/9hAAAABHNCSVQICAgIfAhkiAAAAAlwSFlzAAAOxAAADsQBlSsOGwAAABl0RVh0U29mdHdhcmUAd3d3Lmlua3NjYXBlLm9yZ5vuPBoAAAFVSURBVDiNtZK9TgJREEbPXBbF2FpZ+gQWVtbGWFgYYE1khWjiCxhrE21tLP1phIaCNRiJhb6FFlY+ALGRmIAFsHdsFrxkMYEYv2pmzp2ZLzcDf5QA+De15Sglh6LMAagSYfSpXtouA+TL4b6FdRFScd+XNanzu2L2xQOwRo5E2R1OFUBlCygDqHAhMOtuNtYaoGTifATGyjjxGK4ZAJME02kwQMcw+0scS6wzQJ6AjkMjgfthptoAIod3VOzj9H7/QwKQL4eBClfAfFyPVAnre/6O+zhXCa976d5xo1B4H9QMgIVNpxkgJUJ+zMLVdHdmwS14AM6FJRhAthJeCqwAS6C1bCVsZ7zuRjUIWt6YxqSMOTVRtGiN1EQ4MUZfq0HQ+tmi0kESp9AeBPVirgk0c5XwU60835b8txGb1vTPjPVAdPAPfRV9SBjp6Vp44H9M5HpSfQPboW2GgFUougAAAABJRU5ErkJggg==&quot;&gt;&amp;nbsp;&lt;font face=&quot;Comic Sans MS&quot;&gt;Role&lt;/font&gt;" style="text;strokeColor=none;fillColor=none;align=left;verticalAlign=top;spacingLeft=4;spacingRight=4;overflow=hidden;rotatable=0;points=[[0,0.5],[1,0.5]];portConstraint=eastwest;whiteSpace=wrap;html=1;" parent="l-SgXU7na3cR4uzJKPwT-1" vertex="1">
          <mxGeometry y="116" width="193" height="30" as="geometry" />
        </mxCell>
        <mxCell id="l-SgXU7na3cR4uzJKPwT-5" value="&lt;img height=&quot;16&quot; width=&quot;16&quot; src=&quot;data:image/png;base64,iVBORw0KGgoAAAANSUhEUgAAABAAAAAQCAYAAAAf8/9hAAAABHNCSVQICAgIfAhkiAAAAAlwSFlzAAAOxAAADsQBlSsOGwAAABl0RVh0U29mdHdhcmUAd3d3Lmlua3NjYXBlLm9yZ5vuPBoAAAFgSURBVDiN7ZAxS1thGIWf97s3RUnSf9C6FlFxKh3cVOjszQ26JFpa/A8uavduHQuXBFzuTYJ1E0cFxYKgqOCiBV1c1TiY5jsuScEhv6A908sZznnPA/9l/WMxSYbueD3ZWooO5jaaI67r3wNIdtGslk4Wk2ToPix+NCnnu+53ayn6BeAA4jQdfrDCljm/C+C6flkilUhBR3GSjrddfgKvVCI15w9LtewzQAigR1uTMdP/qFGJV4AVgKiWSYG9a1TiDHjV8za9mAZ+hAAd/+d7GAS3YN8A4nr6titbMygACLsDKNWzOYl5Ex8wq/+d8PPTwrWZXfd5eNmqwWwP0vr45enOIIjhAL8I7DercRmg0TMblbgFtKJatinpzcsA8QR0eq3ngtWolgnoODQF4LE9IAfgjC8vAgr+Ybvt8lMAY1dnX49HRg+CwIqIp7xvnwDch8WySTmTbrJqeX/QrH9Nzyj3i5WedCoFAAAAAElFTkSuQmCC&quot;&gt;&amp;nbsp;&lt;font face=&quot;Comic Sans MS&quot;&gt;AppliedPromocodesCount&lt;/font&gt;" style="text;strokeColor=none;fillColor=none;align=left;verticalAlign=top;spacingLeft=4;spacingRight=4;overflow=hidden;rotatable=0;points=[[0,0.5],[1,0.5]];portConstraint=eastwest;whiteSpace=wrap;html=1;" parent="l-SgXU7na3cR4uzJKPwT-1" vertex="1">
          <mxGeometry y="146" width="193" height="30" as="geometry" />
        </mxCell>
        <mxCell id="l-SgXU7na3cR4uzJKPwT-8" value="&lt;img height=&quot;16&quot; width=&quot;16&quot; src=&quot;data:image/png;base64,iVBORw0KGgoAAAANSUhEUgAAABAAAAAQCAYAAAAf8/9hAAAABHNCSVQICAgIfAhkiAAAAAlwSFlzAAAAWQAAAFkBqp2phgAAABl0RVh0U29mdHdhcmUAd3d3Lmlua3NjYXBlLm9yZ5vuPBoAAAITSURBVDiNjZA/aBNRAMa/e/lrmuRymGrT2BZJL00tUu0fxKRFG9DBQcRScBHEQRFqRRDazcHaqRhwKuqgUicHURyiCHbQzcEhUqpVaxtME71LLsZLr5fLc+mV5BJJP3jLx+/73vceAMyAISoA2ugwxCQAOIYKMWCIOjy3arY4OTRS8vW94vL85IuytnlO9whoeUdhALCy3l3EZndVemYASNw9XwVSTUUx8x0OX7DKV8QkyqrirykghNyqAvO5Zjm1POr0h+aqilWFp2XNYVxG66ztAZCo94zOgZGL/q7exeBgdGp7AYAxA9cGwF3hlwC85PtHrqS+JmKnr86Q+P3p24G+YY7ZWvDUUOAGcBTAK72gydeZVoTkxLUHb0lbqA/plSXcuRAu7egJXCgybnU3a2xXeCMYPiXPvv9DI2cv0ZZAz5eGBVwoMm5x7dYGp9/R44+y1Nt7sujZ267u6eDXOY5j9T+oV/LLc2BoorC2GDs0+Zy49h8GKIXN22GXvn2Q6IbULUmS9L9w1c3RJ39pdL5A9524TB0+fh0cx+ocA0AB0ApAqMizJrtT7L/5hjjbDwKUYunhdWQTCyl5UwhBFPM6aAYwC+AnAOuWl3IHBqZM9qbt8OfHN5D9tJA2hvUFNfJ0Dz2zca1nWP4IhI9xFDMraVkRgsawvqBGWjHfksv8yCu/VxOw2OJyKReDKBbqsf8Aa8fUs+1j2QQAAAAASUVORK5CYII=&quot;&gt;&lt;font face=&quot;Comic Sans MS&quot;&gt;Role(Роль)&lt;/font&gt;" style="swimlane;fontStyle=1;align=center;verticalAlign=top;childLayout=stackLayout;horizontal=1;startSize=26;horizontalStack=0;resizeParent=1;resizeParentMax=0;resizeLast=0;collapsible=1;marginBottom=0;whiteSpace=wrap;html=1;fillColor=#ffe6cc;strokeColor=#d79b00;sketch=1;curveFitting=1;jiggle=2;shadow=1;" parent="1" vertex="1">
          <mxGeometry x="407" y="1273" width="160" height="86" as="geometry">
            <mxRectangle x="74" y="291" width="95" height="26" as="alternateBounds" />
          </mxGeometry>
        </mxCell>
        <mxCell id="l-SgXU7na3cR4uzJKPwT-9" value="&lt;img height=&quot;16&quot; width=&quot;16&quot; src=&quot;data:image/png;base64,iVBORw0KGgoAAAANSUhEUgAAABAAAAAQCAYAAAAf8/9hAAAABHNCSVQICAgIfAhkiAAAAAlwSFlzAAAOxAAADsQBlSsOGwAAABl0RVh0U29mdHdhcmUAd3d3Lmlua3NjYXBlLm9yZ5vuPBoAAAGVSURBVDiN7ZJPS1RhFMZ/57xdh6KICkUkmgpatGhtu/4QuJmy5s6dnTiUi1rXB5ivECqYm3BaJPd2s11WQlBkW8k2EUl/NolltHHMt/seF6UYCH2A+m3O5nkeeB4O/EcAkjR1oS1vKfRcfjleAIhb2TuMo2IsmpOr+UDtAWZSa927aXAF+BLUhhSgWHEngSOo9W9GG/t85LsDGhNsHDO5dCc7Y3A24A4hck2DjiuAiFWAN7/vHzgtPgG7kixTF6RswtzUYPXriYXX01iY11+yUDGz6wa9ya1074Y58tHjYDIPvMjq9WJrcLPZDHmjfkEv3r57GKRnudz5COxlKGnfhiio3TDT80BXtZU2thtRnboKIAc+Lj0EOYawWaNwP1/db8TPBMbE5PRWY5KmrjqRPZd4Ip1GmMXcLGb7TWzU7bTu0JYlH/nje0JorxalSbCZIMxpkOGODn/qx9qOXhEdUZByyfnhfDCeyRu1VOB94d1BhG+Rjz6vFqVFE5ZXvu8enRpIniLyZM1HH0R0RMyG/vIm/wTrdrioEt82JnkAAAAASUVORK5CYII=&quot;&gt;&amp;nbsp;&lt;font face=&quot;Comic Sans MS&quot;&gt;Name&lt;/font&gt;" style="text;strokeColor=none;fillColor=none;align=left;verticalAlign=top;spacingLeft=4;spacingRight=4;overflow=hidden;rotatable=0;points=[[0,0.5],[1,0.5]];portConstraint=eastwest;whiteSpace=wrap;html=1;" parent="l-SgXU7na3cR4uzJKPwT-8" vertex="1">
          <mxGeometry y="26" width="160" height="30" as="geometry" />
        </mxCell>
        <mxCell id="l-SgXU7na3cR4uzJKPwT-10" value="&lt;img height=&quot;16&quot; width=&quot;16&quot; src=&quot;data:image/png;base64,iVBORw0KGgoAAAANSUhEUgAAABAAAAAQCAYAAAAf8/9hAAAABHNCSVQICAgIfAhkiAAAAAlwSFlzAAAOxAAADsQBlSsOGwAAABl0RVh0U29mdHdhcmUAd3d3Lmlua3NjYXBlLm9yZ5vuPBoAAAGVSURBVDiN7ZJPS1RhFMZ/57xdh6KICkUkmgpatGhtu/4QuJmy5s6dnTiUi1rXB5ivECqYm3BaJPd2s11WQlBkW8k2EUl/NolltHHMt/seF6UYCH2A+m3O5nkeeB4O/EcAkjR1oS1vKfRcfjleAIhb2TuMo2IsmpOr+UDtAWZSa927aXAF+BLUhhSgWHEngSOo9W9GG/t85LsDGhNsHDO5dCc7Y3A24A4hck2DjiuAiFWAN7/vHzgtPgG7kixTF6RswtzUYPXriYXX01iY11+yUDGz6wa9ya1074Y58tHjYDIPvMjq9WJrcLPZDHmjfkEv3r57GKRnudz5COxlKGnfhiio3TDT80BXtZU2thtRnboKIAc+Lj0EOYawWaNwP1/db8TPBMbE5PRWY5KmrjqRPZd4Ip1GmMXcLGb7TWzU7bTu0JYlH/nje0JorxalSbCZIMxpkOGODn/qx9qOXhEdUZByyfnhfDCeyRu1VOB94d1BhG+Rjz6vFqVFE5ZXvu8enRpIniLyZM1HH0R0RMyG/vIm/wTrdrioEt82JnkAAAAASUVORK5CYII=&quot;&gt;&amp;nbsp;&lt;font face=&quot;Comic Sans MS&quot;&gt;Description&lt;/font&gt;" style="text;strokeColor=none;fillColor=none;align=left;verticalAlign=top;spacingLeft=4;spacingRight=4;overflow=hidden;rotatable=0;points=[[0,0.5],[1,0.5]];portConstraint=eastwest;whiteSpace=wrap;html=1;" parent="l-SgXU7na3cR4uzJKPwT-8" vertex="1">
          <mxGeometry y="56" width="160" height="30" as="geometry" />
        </mxCell>
        <mxCell id="l-SgXU7na3cR4uzJKPwT-19" style="edgeStyle=orthogonalEdgeStyle;rounded=0;orthogonalLoop=1;jettySize=auto;html=1;shadow=1;sketch=1;jiggle=2;curveFitting=1;strokeColor=default;strokeWidth=1;align=center;verticalAlign=middle;fontFamily=Helvetica;fontSize=11;fontColor=default;labelBackgroundColor=default;endArrow=classic;flowAnimation=0;curved=1;entryX=0;entryY=0;entryDx=0;entryDy=0;" parent="1" source="l-SgXU7na3cR4uzJKPwT-2" target="l-SgXU7na3cR4uzJKPwT-8" edge="1">
          <mxGeometry relative="1" as="geometry" />
        </mxCell>
        <mxCell id="l-SgXU7na3cR4uzJKPwT-21" value="&lt;img height=&quot;16&quot; width=&quot;16&quot; src=&quot;data:image/png;base64,iVBORw0KGgoAAAANSUhEUgAAABAAAAAQCAYAAAAf8/9hAAAABHNCSVQICAgIfAhkiAAAAAlwSFlzAAAAWQAAAFkBqp2phgAAABl0RVh0U29mdHdhcmUAd3d3Lmlua3NjYXBlLm9yZ5vuPBoAAAITSURBVDiNjZA/aBNRAMa/e/lrmuRymGrT2BZJL00tUu0fxKRFG9DBQcRScBHEQRFqRRDazcHaqRhwKuqgUicHURyiCHbQzcEhUqpVaxtME71LLsZLr5fLc+mV5BJJP3jLx+/73vceAMyAISoA2ugwxCQAOIYKMWCIOjy3arY4OTRS8vW94vL85IuytnlO9whoeUdhALCy3l3EZndVemYASNw9XwVSTUUx8x0OX7DKV8QkyqrirykghNyqAvO5Zjm1POr0h+aqilWFp2XNYVxG66ztAZCo94zOgZGL/q7exeBgdGp7AYAxA9cGwF3hlwC85PtHrqS+JmKnr86Q+P3p24G+YY7ZWvDUUOAGcBTAK72gydeZVoTkxLUHb0lbqA/plSXcuRAu7egJXCgybnU3a2xXeCMYPiXPvv9DI2cv0ZZAz5eGBVwoMm5x7dYGp9/R44+y1Nt7sujZ267u6eDXOY5j9T+oV/LLc2BoorC2GDs0+Zy49h8GKIXN22GXvn2Q6IbULUmS9L9w1c3RJ39pdL5A9524TB0+fh0cx+ocA0AB0ApAqMizJrtT7L/5hjjbDwKUYunhdWQTCyl5UwhBFPM6aAYwC+AnAOuWl3IHBqZM9qbt8OfHN5D9tJA2hvUFNfJ0Dz2zca1nWP4IhI9xFDMraVkRgsawvqBGWjHfksv8yCu/VxOw2OJyKReDKBbqsf8Aa8fUs+1j2QQAAAAASUVORK5CYII=&quot;&gt;&lt;font face=&quot;Comic Sans MS&quot;&gt;Customer(&lt;span style=&quot;white-space-collapse: preserve;&quot;&gt;Покупатель)&lt;/span&gt;&lt;/font&gt;" style="swimlane;fontStyle=1;align=center;verticalAlign=top;childLayout=stackLayout;horizontal=1;startSize=26;horizontalStack=0;resizeParent=1;resizeParentMax=0;resizeLast=0;collapsible=1;marginBottom=0;whiteSpace=wrap;html=1;fillColor=#ffe6cc;strokeColor=#d79b00;sketch=1;curveFitting=1;jiggle=2;shadow=1;" parent="1" vertex="1">
          <mxGeometry x="30" y="672" width="193" height="176" as="geometry">
            <mxRectangle x="74" y="291" width="95" height="26" as="alternateBounds" />
          </mxGeometry>
        </mxCell>
        <mxCell id="l-SgXU7na3cR4uzJKPwT-22" value="&lt;img height=&quot;16&quot; width=&quot;16&quot; src=&quot;data:image/png;base64,iVBORw0KGgoAAAANSUhEUgAAABAAAAAQCAYAAAAf8/9hAAAABHNCSVQICAgIfAhkiAAAAAlwSFlzAAAOxAAADsQBlSsOGwAAABl0RVh0U29mdHdhcmUAd3d3Lmlua3NjYXBlLm9yZ5vuPBoAAAGVSURBVDiN7ZJPS1RhFMZ/57xdh6KICkUkmgpatGhtu/4QuJmy5s6dnTiUi1rXB5ivECqYm3BaJPd2s11WQlBkW8k2EUl/NolltHHMt/seF6UYCH2A+m3O5nkeeB4O/EcAkjR1oS1vKfRcfjleAIhb2TuMo2IsmpOr+UDtAWZSa927aXAF+BLUhhSgWHEngSOo9W9GG/t85LsDGhNsHDO5dCc7Y3A24A4hck2DjiuAiFWAN7/vHzgtPgG7kixTF6RswtzUYPXriYXX01iY11+yUDGz6wa9ya1074Y58tHjYDIPvMjq9WJrcLPZDHmjfkEv3r57GKRnudz5COxlKGnfhiio3TDT80BXtZU2thtRnboKIAc+Lj0EOYawWaNwP1/db8TPBMbE5PRWY5KmrjqRPZd4Ip1GmMXcLGb7TWzU7bTu0JYlH/nje0JorxalSbCZIMxpkOGODn/qx9qOXhEdUZByyfnhfDCeyRu1VOB94d1BhG+Rjz6vFqVFE5ZXvu8enRpIniLyZM1HH0R0RMyG/vIm/wTrdrioEt82JnkAAAAASUVORK5CYII=&quot;&gt;&amp;nbsp;&lt;font face=&quot;Comic Sans MS&quot;&gt;FirstName&lt;/font&gt;" style="text;strokeColor=none;fillColor=none;align=left;verticalAlign=top;spacingLeft=4;spacingRight=4;overflow=hidden;rotatable=0;points=[[0,0.5],[1,0.5]];portConstraint=eastwest;whiteSpace=wrap;html=1;" parent="l-SgXU7na3cR4uzJKPwT-21" vertex="1">
          <mxGeometry y="26" width="193" height="30" as="geometry" />
        </mxCell>
        <mxCell id="l-SgXU7na3cR4uzJKPwT-23" value="&lt;img height=&quot;16&quot; width=&quot;16&quot; src=&quot;data:image/png;base64,iVBORw0KGgoAAAANSUhEUgAAABAAAAAQCAYAAAAf8/9hAAAABHNCSVQICAgIfAhkiAAAAAlwSFlzAAAOxAAADsQBlSsOGwAAABl0RVh0U29mdHdhcmUAd3d3Lmlua3NjYXBlLm9yZ5vuPBoAAAGVSURBVDiN7ZJPS1RhFMZ/57xdh6KICkUkmgpatGhtu/4QuJmy5s6dnTiUi1rXB5ivECqYm3BaJPd2s11WQlBkW8k2EUl/NolltHHMt/seF6UYCH2A+m3O5nkeeB4O/EcAkjR1oS1vKfRcfjleAIhb2TuMo2IsmpOr+UDtAWZSa927aXAF+BLUhhSgWHEngSOo9W9GG/t85LsDGhNsHDO5dCc7Y3A24A4hck2DjiuAiFWAN7/vHzgtPgG7kixTF6RswtzUYPXriYXX01iY11+yUDGz6wa9ya1074Y58tHjYDIPvMjq9WJrcLPZDHmjfkEv3r57GKRnudz5COxlKGnfhiio3TDT80BXtZU2thtRnboKIAc+Lj0EOYawWaNwP1/db8TPBMbE5PRWY5KmrjqRPZd4Ip1GmMXcLGb7TWzU7bTu0JYlH/nje0JorxalSbCZIMxpkOGODn/qx9qOXhEdUZByyfnhfDCeyRu1VOB94d1BhG+Rjz6vFqVFE5ZXvu8enRpIniLyZM1HH0R0RMyG/vIm/wTrdrioEt82JnkAAAAASUVORK5CYII=&quot;&gt;&amp;nbsp;&lt;font face=&quot;Comic Sans MS&quot;&gt;LastName&lt;/font&gt;" style="text;strokeColor=none;fillColor=none;align=left;verticalAlign=top;spacingLeft=4;spacingRight=4;overflow=hidden;rotatable=0;points=[[0,0.5],[1,0.5]];portConstraint=eastwest;whiteSpace=wrap;html=1;" parent="l-SgXU7na3cR4uzJKPwT-21" vertex="1">
          <mxGeometry y="56" width="193" height="30" as="geometry" />
        </mxCell>
        <mxCell id="l-SgXU7na3cR4uzJKPwT-24" value="&lt;img height=&quot;16&quot; width=&quot;16&quot; src=&quot;data:image/png;base64,iVBORw0KGgoAAAANSUhEUgAAABAAAAAQCAYAAAAf8/9hAAAABHNCSVQICAgIfAhkiAAAAAlwSFlzAAAOxAAADsQBlSsOGwAAABl0RVh0U29mdHdhcmUAd3d3Lmlua3NjYXBlLm9yZ5vuPBoAAAGVSURBVDiN7ZJPS1RhFMZ/57xdh6KICkUkmgpatGhtu/4QuJmy5s6dnTiUi1rXB5ivECqYm3BaJPd2s11WQlBkW8k2EUl/NolltHHMt/seF6UYCH2A+m3O5nkeeB4O/EcAkjR1oS1vKfRcfjleAIhb2TuMo2IsmpOr+UDtAWZSa927aXAF+BLUhhSgWHEngSOo9W9GG/t85LsDGhNsHDO5dCc7Y3A24A4hck2DjiuAiFWAN7/vHzgtPgG7kixTF6RswtzUYPXriYXX01iY11+yUDGz6wa9ya1074Y58tHjYDIPvMjq9WJrcLPZDHmjfkEv3r57GKRnudz5COxlKGnfhiio3TDT80BXtZU2thtRnboKIAc+Lj0EOYawWaNwP1/db8TPBMbE5PRWY5KmrjqRPZd4Ip1GmMXcLGb7TWzU7bTu0JYlH/nje0JorxalSbCZIMxpkOGODn/qx9qOXhEdUZByyfnhfDCeyRu1VOB94d1BhG+Rjz6vFqVFE5ZXvu8enRpIniLyZM1HH0R0RMyG/vIm/wTrdrioEt82JnkAAAAASUVORK5CYII=&quot;&gt;&amp;nbsp;&lt;font face=&quot;Comic Sans MS&quot;&gt;Email&lt;/font&gt;" style="text;strokeColor=none;fillColor=none;align=left;verticalAlign=top;spacingLeft=4;spacingRight=4;overflow=hidden;rotatable=0;points=[[0,0.5],[1,0.5]];portConstraint=eastwest;whiteSpace=wrap;html=1;" parent="l-SgXU7na3cR4uzJKPwT-21" vertex="1">
          <mxGeometry y="86" width="193" height="30" as="geometry" />
        </mxCell>
        <mxCell id="l-SgXU7na3cR4uzJKPwT-25" value="&lt;img height=&quot;16&quot; width=&quot;16&quot; src=&quot;data:image/png;base64,iVBORw0KGgoAAAANSUhEUgAAABAAAAAQCAYAAAAf8/9hAAAABHNCSVQICAgIfAhkiAAAAAlwSFlzAAAOxAAADsQBlSsOGwAAABl0RVh0U29mdHdhcmUAd3d3Lmlua3NjYXBlLm9yZ5vuPBoAAAFVSURBVDiNtZK9TgJREEbPXBbF2FpZ+gQWVtbGWFgYYE1khWjiCxhrE21tLP1phIaCNRiJhb6FFlY+ALGRmIAFsHdsFrxkMYEYv2pmzp2ZLzcDf5QA+De15Sglh6LMAagSYfSpXtouA+TL4b6FdRFScd+XNanzu2L2xQOwRo5E2R1OFUBlCygDqHAhMOtuNtYaoGTifATGyjjxGK4ZAJME02kwQMcw+0scS6wzQJ6AjkMjgfthptoAIod3VOzj9H7/QwKQL4eBClfAfFyPVAnre/6O+zhXCa976d5xo1B4H9QMgIVNpxkgJUJ+zMLVdHdmwS14AM6FJRhAthJeCqwAS6C1bCVsZ7zuRjUIWt6YxqSMOTVRtGiN1EQ4MUZfq0HQ+tmi0kESp9AeBPVirgk0c5XwU60835b8txGb1vTPjPVAdPAPfRV9SBjp6Vp44H9M5HpSfQPboW2GgFUougAAAABJRU5ErkJggg==&quot;&gt;&amp;nbsp;&lt;font face=&quot;Comic Sans MS&quot;&gt;List&amp;lt;Preference&amp;gt;&lt;/font&gt;" style="text;strokeColor=none;fillColor=none;align=left;verticalAlign=top;spacingLeft=4;spacingRight=4;overflow=hidden;rotatable=0;points=[[0,0.5],[1,0.5]];portConstraint=eastwest;whiteSpace=wrap;html=1;" parent="l-SgXU7na3cR4uzJKPwT-21" vertex="1">
          <mxGeometry y="116" width="193" height="30" as="geometry" />
        </mxCell>
        <mxCell id="l-SgXU7na3cR4uzJKPwT-33" value="&lt;img height=&quot;16&quot; width=&quot;16&quot; src=&quot;data:image/png;base64,iVBORw0KGgoAAAANSUhEUgAAABAAAAAQCAYAAAAf8/9hAAAABHNCSVQICAgIfAhkiAAAAAlwSFlzAAAOxAAADsQBlSsOGwAAABl0RVh0U29mdHdhcmUAd3d3Lmlua3NjYXBlLm9yZ5vuPBoAAAFVSURBVDiNtZK9TgJREEbPXBbF2FpZ+gQWVtbGWFgYYE1khWjiCxhrE21tLP1phIaCNRiJhb6FFlY+ALGRmIAFsHdsFrxkMYEYv2pmzp2ZLzcDf5QA+De15Sglh6LMAagSYfSpXtouA+TL4b6FdRFScd+XNanzu2L2xQOwRo5E2R1OFUBlCygDqHAhMOtuNtYaoGTifATGyjjxGK4ZAJME02kwQMcw+0scS6wzQJ6AjkMjgfthptoAIod3VOzj9H7/QwKQL4eBClfAfFyPVAnre/6O+zhXCa976d5xo1B4H9QMgIVNpxkgJUJ+zMLVdHdmwS14AM6FJRhAthJeCqwAS6C1bCVsZ7zuRjUIWt6YxqSMOTVRtGiN1EQ4MUZfq0HQ+tmi0kESp9AeBPVirgk0c5XwU60835b8txGb1vTPjPVAdPAPfRV9SBjp6Vp44H9M5HpSfQPboW2GgFUougAAAABJRU5ErkJggg==&quot;&gt;&amp;nbsp;&lt;font face=&quot;Comic Sans MS&quot;&gt;List&amp;lt;PromoCode&amp;gt;&lt;/font&gt;" style="text;strokeColor=none;fillColor=none;align=left;verticalAlign=top;spacingLeft=4;spacingRight=4;overflow=hidden;rotatable=0;points=[[0,0.5],[1,0.5]];portConstraint=eastwest;whiteSpace=wrap;html=1;" parent="l-SgXU7na3cR4uzJKPwT-21" vertex="1">
          <mxGeometry y="146" width="193" height="30" as="geometry" />
        </mxCell>
        <mxCell id="l-SgXU7na3cR4uzJKPwT-27" value="&lt;img height=&quot;16&quot; width=&quot;16&quot; src=&quot;data:image/png;base64,iVBORw0KGgoAAAANSUhEUgAAABAAAAAQCAYAAAAf8/9hAAAABHNCSVQICAgIfAhkiAAAAAlwSFlzAAAAWQAAAFkBqp2phgAAABl0RVh0U29mdHdhcmUAd3d3Lmlua3NjYXBlLm9yZ5vuPBoAAAITSURBVDiNjZA/aBNRAMa/e/lrmuRymGrT2BZJL00tUu0fxKRFG9DBQcRScBHEQRFqRRDazcHaqRhwKuqgUicHURyiCHbQzcEhUqpVaxtME71LLsZLr5fLc+mV5BJJP3jLx+/73vceAMyAISoA2ugwxCQAOIYKMWCIOjy3arY4OTRS8vW94vL85IuytnlO9whoeUdhALCy3l3EZndVemYASNw9XwVSTUUx8x0OX7DKV8QkyqrirykghNyqAvO5Zjm1POr0h+aqilWFp2XNYVxG66ztAZCo94zOgZGL/q7exeBgdGp7AYAxA9cGwF3hlwC85PtHrqS+JmKnr86Q+P3p24G+YY7ZWvDUUOAGcBTAK72gydeZVoTkxLUHb0lbqA/plSXcuRAu7egJXCgybnU3a2xXeCMYPiXPvv9DI2cv0ZZAz5eGBVwoMm5x7dYGp9/R44+y1Nt7sujZ267u6eDXOY5j9T+oV/LLc2BoorC2GDs0+Zy49h8GKIXN22GXvn2Q6IbULUmS9L9w1c3RJ39pdL5A9524TB0+fh0cx+ocA0AB0ApAqMizJrtT7L/5hjjbDwKUYunhdWQTCyl5UwhBFPM6aAYwC+AnAOuWl3IHBqZM9qbt8OfHN5D9tJA2hvUFNfJ0Dz2zca1nWP4IhI9xFDMraVkRgsawvqBGWjHfksv8yCu/VxOw2OJyKReDKBbqsf8Aa8fUs+1j2QQAAAAASUVORK5CYII=&quot;&gt;&lt;font face=&quot;Comic Sans MS&quot;&gt;Preference(&lt;/font&gt;&lt;span style=&quot;white-space-collapse: preserve;&quot; data-src-align=&quot;0:10&quot; class=&quot;EzKURWReUAB5oZgtQNkl&quot;&gt;&lt;font face=&quot;Comic Sans MS&quot;&gt;Предпочтение&lt;/font&gt;&lt;/span&gt;&lt;font face=&quot;Comic Sans MS&quot;&gt;&lt;span style=&quot;white-space-collapse: preserve;&quot;&gt;)&lt;/span&gt;&lt;/font&gt;" style="swimlane;fontStyle=1;align=center;verticalAlign=top;childLayout=stackLayout;horizontal=1;startSize=26;horizontalStack=0;resizeParent=1;resizeParentMax=0;resizeLast=0;collapsible=1;marginBottom=0;whiteSpace=wrap;html=1;fillColor=#ffe6cc;strokeColor=#d79b00;sketch=1;curveFitting=1;jiggle=2;shadow=1;" parent="1" vertex="1">
          <mxGeometry x="394" y="874" width="193" height="56" as="geometry">
            <mxRectangle x="74" y="291" width="95" height="26" as="alternateBounds" />
          </mxGeometry>
        </mxCell>
        <mxCell id="l-SgXU7na3cR4uzJKPwT-28" value="&lt;img height=&quot;16&quot; width=&quot;16&quot; src=&quot;data:image/png;base64,iVBORw0KGgoAAAANSUhEUgAAABAAAAAQCAYAAAAf8/9hAAAABHNCSVQICAgIfAhkiAAAAAlwSFlzAAAOxAAADsQBlSsOGwAAABl0RVh0U29mdHdhcmUAd3d3Lmlua3NjYXBlLm9yZ5vuPBoAAAGVSURBVDiN7ZJPS1RhFMZ/57xdh6KICkUkmgpatGhtu/4QuJmy5s6dnTiUi1rXB5ivECqYm3BaJPd2s11WQlBkW8k2EUl/NolltHHMt/seF6UYCH2A+m3O5nkeeB4O/EcAkjR1oS1vKfRcfjleAIhb2TuMo2IsmpOr+UDtAWZSa927aXAF+BLUhhSgWHEngSOo9W9GG/t85LsDGhNsHDO5dCc7Y3A24A4hck2DjiuAiFWAN7/vHzgtPgG7kixTF6RswtzUYPXriYXX01iY11+yUDGz6wa9ya1074Y58tHjYDIPvMjq9WJrcLPZDHmjfkEv3r57GKRnudz5COxlKGnfhiio3TDT80BXtZU2thtRnboKIAc+Lj0EOYawWaNwP1/db8TPBMbE5PRWY5KmrjqRPZd4Ip1GmMXcLGb7TWzU7bTu0JYlH/nje0JorxalSbCZIMxpkOGODn/qx9qOXhEdUZByyfnhfDCeyRu1VOB94d1BhG+Rjz6vFqVFE5ZXvu8enRpIniLyZM1HH0R0RMyG/vIm/wTrdrioEt82JnkAAAAASUVORK5CYII=&quot;&gt;&amp;nbsp;&lt;font face=&quot;Comic Sans MS&quot;&gt;Name&lt;/font&gt;" style="text;strokeColor=none;fillColor=none;align=left;verticalAlign=top;spacingLeft=4;spacingRight=4;overflow=hidden;rotatable=0;points=[[0,0.5],[1,0.5]];portConstraint=eastwest;whiteSpace=wrap;html=1;" parent="l-SgXU7na3cR4uzJKPwT-27" vertex="1">
          <mxGeometry y="26" width="193" height="30" as="geometry" />
        </mxCell>
        <mxCell id="l-SgXU7na3cR4uzJKPwT-34" value="&lt;img height=&quot;16&quot; width=&quot;16&quot; src=&quot;data:image/png;base64,iVBORw0KGgoAAAANSUhEUgAAABAAAAAQCAYAAAAf8/9hAAAABHNCSVQICAgIfAhkiAAAAAlwSFlzAAAAWQAAAFkBqp2phgAAABl0RVh0U29mdHdhcmUAd3d3Lmlua3NjYXBlLm9yZ5vuPBoAAAITSURBVDiNjZA/aBNRAMa/e/lrmuRymGrT2BZJL00tUu0fxKRFG9DBQcRScBHEQRFqRRDazcHaqRhwKuqgUicHURyiCHbQzcEhUqpVaxtME71LLsZLr5fLc+mV5BJJP3jLx+/73vceAMyAISoA2ugwxCQAOIYKMWCIOjy3arY4OTRS8vW94vL85IuytnlO9whoeUdhALCy3l3EZndVemYASNw9XwVSTUUx8x0OX7DKV8QkyqrirykghNyqAvO5Zjm1POr0h+aqilWFp2XNYVxG66ztAZCo94zOgZGL/q7exeBgdGp7AYAxA9cGwF3hlwC85PtHrqS+JmKnr86Q+P3p24G+YY7ZWvDUUOAGcBTAK72gydeZVoTkxLUHb0lbqA/plSXcuRAu7egJXCgybnU3a2xXeCMYPiXPvv9DI2cv0ZZAz5eGBVwoMm5x7dYGp9/R44+y1Nt7sujZ267u6eDXOY5j9T+oV/LLc2BoorC2GDs0+Zy49h8GKIXN22GXvn2Q6IbULUmS9L9w1c3RJ39pdL5A9524TB0+fh0cx+ocA0AB0ApAqMizJrtT7L/5hjjbDwKUYunhdWQTCyl5UwhBFPM6aAYwC+AnAOuWl3IHBqZM9qbt8OfHN5D9tJA2hvUFNfJ0Dz2zca1nWP4IhI9xFDMraVkRgsawvqBGWjHfksv8yCu/VxOw2OJyKReDKBbqsf8Aa8fUs+1j2QQAAAAASUVORK5CYII=&quot;&gt;&lt;font face=&quot;Comic Sans MS&quot;&gt;PromoCode(&lt;/font&gt;&lt;font face=&quot;Comic Sans MS&quot;&gt;&lt;span style=&quot;white-space-collapse: preserve;&quot; data-src-align=&quot;0:5&quot; class=&quot;EzKURWReUAB5oZgtQNkl&quot;&gt;Промо&lt;/span&gt;&lt;span style=&quot;white-space-collapse: preserve;&quot;&gt;-&lt;/span&gt;&lt;span style=&quot;white-space-collapse: preserve;&quot; data-src-align=&quot;6:4&quot; class=&quot;EzKURWReUAB5oZgtQNkl&quot;&gt;код&lt;/span&gt;&lt;/font&gt;&lt;font face=&quot;Comic Sans MS&quot;&gt;&lt;span style=&quot;white-space-collapse: preserve;&quot;&gt;)&lt;/span&gt;&lt;/font&gt;" style="swimlane;fontStyle=1;align=center;verticalAlign=top;childLayout=stackLayout;horizontal=1;startSize=26;horizontalStack=0;resizeParent=1;resizeParentMax=0;resizeLast=0;collapsible=1;marginBottom=0;whiteSpace=wrap;html=1;fillColor=#ffe6cc;strokeColor=#d79b00;sketch=1;curveFitting=1;jiggle=2;shadow=1;" parent="1" vertex="1">
          <mxGeometry x="129" y="886" width="193" height="176" as="geometry">
            <mxRectangle x="74" y="291" width="95" height="26" as="alternateBounds" />
          </mxGeometry>
        </mxCell>
        <mxCell id="l-SgXU7na3cR4uzJKPwT-35" value="&lt;img height=&quot;16&quot; width=&quot;16&quot; src=&quot;data:image/png;base64,iVBORw0KGgoAAAANSUhEUgAAABAAAAAQCAYAAAAf8/9hAAAABHNCSVQICAgIfAhkiAAAAAlwSFlzAAAOxAAADsQBlSsOGwAAABl0RVh0U29mdHdhcmUAd3d3Lmlua3NjYXBlLm9yZ5vuPBoAAAGVSURBVDiN7ZJPS1RhFMZ/57xdh6KICkUkmgpatGhtu/4QuJmy5s6dnTiUi1rXB5ivECqYm3BaJPd2s11WQlBkW8k2EUl/NolltHHMt/seF6UYCH2A+m3O5nkeeB4O/EcAkjR1oS1vKfRcfjleAIhb2TuMo2IsmpOr+UDtAWZSa927aXAF+BLUhhSgWHEngSOo9W9GG/t85LsDGhNsHDO5dCc7Y3A24A4hck2DjiuAiFWAN7/vHzgtPgG7kixTF6RswtzUYPXriYXX01iY11+yUDGz6wa9ya1074Y58tHjYDIPvMjq9WJrcLPZDHmjfkEv3r57GKRnudz5COxlKGnfhiio3TDT80BXtZU2thtRnboKIAc+Lj0EOYawWaNwP1/db8TPBMbE5PRWY5KmrjqRPZd4Ip1GmMXcLGb7TWzU7bTu0JYlH/nje0JorxalSbCZIMxpkOGODn/qx9qOXhEdUZByyfnhfDCeyRu1VOB94d1BhG+Rjz6vFqVFE5ZXvu8enRpIniLyZM1HH0R0RMyG/vIm/wTrdrioEt82JnkAAAAASUVORK5CYII=&quot;&gt;&amp;nbsp;&lt;font face=&quot;Comic Sans MS&quot;&gt;Code&lt;/font&gt;" style="text;strokeColor=none;fillColor=none;align=left;verticalAlign=top;spacingLeft=4;spacingRight=4;overflow=hidden;rotatable=0;points=[[0,0.5],[1,0.5]];portConstraint=eastwest;whiteSpace=wrap;html=1;" parent="l-SgXU7na3cR4uzJKPwT-34" vertex="1">
          <mxGeometry y="26" width="193" height="30" as="geometry" />
        </mxCell>
        <mxCell id="l-SgXU7na3cR4uzJKPwT-36" value="&lt;img height=&quot;16&quot; width=&quot;16&quot; src=&quot;data:image/png;base64,iVBORw0KGgoAAAANSUhEUgAAABAAAAAQCAYAAAAf8/9hAAAABHNCSVQICAgIfAhkiAAAAAlwSFlzAAAOxAAADsQBlSsOGwAAABl0RVh0U29mdHdhcmUAd3d3Lmlua3NjYXBlLm9yZ5vuPBoAAAGVSURBVDiN7ZJPS1RhFMZ/57xdh6KICkUkmgpatGhtu/4QuJmy5s6dnTiUi1rXB5ivECqYm3BaJPd2s11WQlBkW8k2EUl/NolltHHMt/seF6UYCH2A+m3O5nkeeB4O/EcAkjR1oS1vKfRcfjleAIhb2TuMo2IsmpOr+UDtAWZSa927aXAF+BLUhhSgWHEngSOo9W9GG/t85LsDGhNsHDO5dCc7Y3A24A4hck2DjiuAiFWAN7/vHzgtPgG7kixTF6RswtzUYPXriYXX01iY11+yUDGz6wa9ya1074Y58tHjYDIPvMjq9WJrcLPZDHmjfkEv3r57GKRnudz5COxlKGnfhiio3TDT80BXtZU2thtRnboKIAc+Lj0EOYawWaNwP1/db8TPBMbE5PRWY5KmrjqRPZd4Ip1GmMXcLGb7TWzU7bTu0JYlH/nje0JorxalSbCZIMxpkOGODn/qx9qOXhEdUZByyfnhfDCeyRu1VOB94d1BhG+Rjz6vFqVFE5ZXvu8enRpIniLyZM1HH0R0RMyG/vIm/wTrdrioEt82JnkAAAAASUVORK5CYII=&quot;&gt;&amp;nbsp;&lt;font face=&quot;Comic Sans MS&quot;&gt;ServiceInfo&lt;/font&gt;" style="text;strokeColor=none;fillColor=none;align=left;verticalAlign=top;spacingLeft=4;spacingRight=4;overflow=hidden;rotatable=0;points=[[0,0.5],[1,0.5]];portConstraint=eastwest;whiteSpace=wrap;html=1;" parent="l-SgXU7na3cR4uzJKPwT-34" vertex="1">
          <mxGeometry y="56" width="193" height="30" as="geometry" />
        </mxCell>
        <mxCell id="l-SgXU7na3cR4uzJKPwT-37" value="&lt;img height=&quot;16&quot; width=&quot;16&quot; src=&quot;data:image/png;base64,iVBORw0KGgoAAAANSUhEUgAAABAAAAAQCAYAAAAf8/9hAAAABHNCSVQICAgIfAhkiAAAAAlwSFlzAAAOxAAADsQBlSsOGwAAABl0RVh0U29mdHdhcmUAd3d3Lmlua3NjYXBlLm9yZ5vuPBoAAAGVSURBVDiN7ZJPS1RhFMZ/57xdh6KICkUkmgpatGhtu/4QuJmy5s6dnTiUi1rXB5ivECqYm3BaJPd2s11WQlBkW8k2EUl/NolltHHMt/seF6UYCH2A+m3O5nkeeB4O/EcAkjR1oS1vKfRcfjleAIhb2TuMo2IsmpOr+UDtAWZSa927aXAF+BLUhhSgWHEngSOo9W9GG/t85LsDGhNsHDO5dCc7Y3A24A4hck2DjiuAiFWAN7/vHzgtPgG7kixTF6RswtzUYPXriYXX01iY11+yUDGz6wa9ya1074Y58tHjYDIPvMjq9WJrcLPZDHmjfkEv3r57GKRnudz5COxlKGnfhiio3TDT80BXtZU2thtRnboKIAc+Lj0EOYawWaNwP1/db8TPBMbE5PRWY5KmrjqRPZd4Ip1GmMXcLGb7TWzU7bTu0JYlH/nje0JorxalSbCZIMxpkOGODn/qx9qOXhEdUZByyfnhfDCeyRu1VOB94d1BhG+Rjz6vFqVFE5ZXvu8enRpIniLyZM1HH0R0RMyG/vIm/wTrdrioEt82JnkAAAAASUVORK5CYII=&quot;&gt;&amp;nbsp;&lt;font face=&quot;Comic Sans MS&quot;&gt;PartnerName&lt;/font&gt;" style="text;strokeColor=none;fillColor=none;align=left;verticalAlign=top;spacingLeft=4;spacingRight=4;overflow=hidden;rotatable=0;points=[[0,0.5],[1,0.5]];portConstraint=eastwest;whiteSpace=wrap;html=1;" parent="l-SgXU7na3cR4uzJKPwT-34" vertex="1">
          <mxGeometry y="86" width="193" height="30" as="geometry" />
        </mxCell>
        <mxCell id="l-SgXU7na3cR4uzJKPwT-38" value="&lt;img height=&quot;16&quot; width=&quot;16&quot; src=&quot;data:image/png;base64,iVBORw0KGgoAAAANSUhEUgAAABAAAAAQCAYAAAAf8/9hAAAABHNCSVQICAgIfAhkiAAAAAlwSFlzAAAOxAAADsQBlSsOGwAAABl0RVh0U29mdHdhcmUAd3d3Lmlua3NjYXBlLm9yZ5vuPBoAAAFVSURBVDiNtZK9TgJREEbPXBbF2FpZ+gQWVtbGWFgYYE1khWjiCxhrE21tLP1phIaCNRiJhb6FFlY+ALGRmIAFsHdsFrxkMYEYv2pmzp2ZLzcDf5QA+De15Sglh6LMAagSYfSpXtouA+TL4b6FdRFScd+XNanzu2L2xQOwRo5E2R1OFUBlCygDqHAhMOtuNtYaoGTifATGyjjxGK4ZAJME02kwQMcw+0scS6wzQJ6AjkMjgfthptoAIod3VOzj9H7/QwKQL4eBClfAfFyPVAnre/6O+zhXCa976d5xo1B4H9QMgIVNpxkgJUJ+zMLVdHdmwS14AM6FJRhAthJeCqwAS6C1bCVsZ7zuRjUIWt6YxqSMOTVRtGiN1EQ4MUZfq0HQ+tmi0kESp9AeBPVirgk0c5XwU60835b8txGb1vTPjPVAdPAPfRV9SBjp6Vp44H9M5HpSfQPboW2GgFUougAAAABJRU5ErkJggg==&quot;&gt;&amp;nbsp;&lt;font face=&quot;Comic Sans MS&quot;&gt;Employee&lt;/font&gt;" style="text;strokeColor=none;fillColor=none;align=left;verticalAlign=top;spacingLeft=4;spacingRight=4;overflow=hidden;rotatable=0;points=[[0,0.5],[1,0.5]];portConstraint=eastwest;whiteSpace=wrap;html=1;" parent="l-SgXU7na3cR4uzJKPwT-34" vertex="1">
          <mxGeometry y="116" width="193" height="30" as="geometry" />
        </mxCell>
        <mxCell id="l-SgXU7na3cR4uzJKPwT-40" value="&lt;img height=&quot;16&quot; width=&quot;16&quot; src=&quot;data:image/png;base64,iVBORw0KGgoAAAANSUhEUgAAABAAAAAQCAYAAAAf8/9hAAAABHNCSVQICAgIfAhkiAAAAAlwSFlzAAAOxAAADsQBlSsOGwAAABl0RVh0U29mdHdhcmUAd3d3Lmlua3NjYXBlLm9yZ5vuPBoAAAFVSURBVDiNtZK9TgJREEbPXBbF2FpZ+gQWVtbGWFgYYE1khWjiCxhrE21tLP1phIaCNRiJhb6FFlY+ALGRmIAFsHdsFrxkMYEYv2pmzp2ZLzcDf5QA+De15Sglh6LMAagSYfSpXtouA+TL4b6FdRFScd+XNanzu2L2xQOwRo5E2R1OFUBlCygDqHAhMOtuNtYaoGTifATGyjjxGK4ZAJME02kwQMcw+0scS6wzQJ6AjkMjgfthptoAIod3VOzj9H7/QwKQL4eBClfAfFyPVAnre/6O+zhXCa976d5xo1B4H9QMgIVNpxkgJUJ+zMLVdHdmwS14AM6FJRhAthJeCqwAS6C1bCVsZ7zuRjUIWt6YxqSMOTVRtGiN1EQ4MUZfq0HQ+tmi0kESp9AeBPVirgk0c5XwU60835b8txGb1vTPjPVAdPAPfRV9SBjp6Vp44H9M5HpSfQPboW2GgFUougAAAABJRU5ErkJggg==&quot;&gt;&amp;nbsp;&lt;font face=&quot;Comic Sans MS&quot;&gt;Preference&lt;/font&gt;" style="text;strokeColor=none;fillColor=none;align=left;verticalAlign=top;spacingLeft=4;spacingRight=4;overflow=hidden;rotatable=0;points=[[0,0.5],[1,0.5]];portConstraint=eastwest;whiteSpace=wrap;html=1;" parent="l-SgXU7na3cR4uzJKPwT-34" vertex="1">
          <mxGeometry y="146" width="193" height="30" as="geometry" />
        </mxCell>
        <mxCell id="l-SgXU7na3cR4uzJKPwT-41" style="edgeStyle=orthogonalEdgeStyle;curved=1;rounded=0;sketch=1;jiggle=2;curveFitting=1;orthogonalLoop=1;jettySize=auto;html=1;entryX=0.25;entryY=0;entryDx=0;entryDy=0;shadow=1;strokeColor=default;strokeWidth=1;align=center;verticalAlign=middle;fontFamily=Helvetica;fontSize=11;fontColor=default;labelBackgroundColor=default;endArrow=classic;flowAnimation=0;" parent="1" source="l-SgXU7na3cR4uzJKPwT-40" target="l-SgXU7na3cR4uzJKPwT-27" edge="1">
          <mxGeometry relative="1" as="geometry" />
        </mxCell>
        <mxCell id="l-SgXU7na3cR4uzJKPwT-43" style="edgeStyle=orthogonalEdgeStyle;curved=1;rounded=0;sketch=1;jiggle=2;curveFitting=1;orthogonalLoop=1;jettySize=auto;html=1;entryX=0.75;entryY=0;entryDx=0;entryDy=0;shadow=1;strokeColor=default;strokeWidth=1;align=center;verticalAlign=middle;fontFamily=Helvetica;fontSize=11;fontColor=default;labelBackgroundColor=default;endArrow=classic;flowAnimation=0;" parent="1" source="l-SgXU7na3cR4uzJKPwT-33" target="l-SgXU7na3cR4uzJKPwT-34" edge="1">
          <mxGeometry relative="1" as="geometry" />
        </mxCell>
        <mxCell id="l-SgXU7na3cR4uzJKPwT-44" style="edgeStyle=orthogonalEdgeStyle;curved=1;rounded=0;sketch=1;jiggle=2;curveFitting=1;orthogonalLoop=1;jettySize=auto;html=1;entryX=0;entryY=0;entryDx=0;entryDy=0;shadow=1;strokeColor=default;strokeWidth=1;align=center;verticalAlign=middle;fontFamily=Helvetica;fontSize=11;fontColor=default;labelBackgroundColor=default;endArrow=classic;flowAnimation=0;" parent="1" source="l-SgXU7na3cR4uzJKPwT-38" target="l-SgXU7na3cR4uzJKPwT-1" edge="1">
          <mxGeometry relative="1" as="geometry">
            <Array as="points">
              <mxPoint x="72" y="1017" />
              <mxPoint x="72" y="1071" />
              <mxPoint x="162" y="1071" />
            </Array>
          </mxGeometry>
        </mxCell>
        <mxCell id="l-SgXU7na3cR4uzJKPwT-45" value="&lt;img height=&quot;16&quot; width=&quot;16&quot; src=&quot;data:image/png;base64,iVBORw0KGgoAAAANSUhEUgAAABAAAAAQCAYAAAAf8/9hAAAABHNCSVQICAgIfAhkiAAAAAlwSFlzAAAAWQAAAFkBqp2phgAAABl0RVh0U29mdHdhcmUAd3d3Lmlua3NjYXBlLm9yZ5vuPBoAAAITSURBVDiNjZA/aBNRAMa/e/lrmuRymGrT2BZJL00tUu0fxKRFG9DBQcRScBHEQRFqRRDazcHaqRhwKuqgUicHURyiCHbQzcEhUqpVaxtME71LLsZLr5fLc+mV5BJJP3jLx+/73vceAMyAISoA2ugwxCQAOIYKMWCIOjy3arY4OTRS8vW94vL85IuytnlO9whoeUdhALCy3l3EZndVemYASNw9XwVSTUUx8x0OX7DKV8QkyqrirykghNyqAvO5Zjm1POr0h+aqilWFp2XNYVxG66ztAZCo94zOgZGL/q7exeBgdGp7AYAxA9cGwF3hlwC85PtHrqS+JmKnr86Q+P3p24G+YY7ZWvDUUOAGcBTAK72gydeZVoTkxLUHb0lbqA/plSXcuRAu7egJXCgybnU3a2xXeCMYPiXPvv9DI2cv0ZZAz5eGBVwoMm5x7dYGp9/R44+y1Nt7sujZ267u6eDXOY5j9T+oV/LLc2BoorC2GDs0+Zy49h8GKIXN22GXvn2Q6IbULUmS9L9w1c3RJ39pdL5A9524TB0+fh0cx+ocA0AB0ApAqMizJrtT7L/5hjjbDwKUYunhdWQTCyl5UwhBFPM6aAYwC+AnAOuWl3IHBqZM9qbt8OfHN5D9tJA2hvUFNfJ0Dz2zca1nWP4IhI9xFDMraVkRgsawvqBGWjHfksv8yCu/VxOw2OJyKReDKBbqsf8Aa8fUs+1j2QQAAAAASUVORK5CYII=&quot;&gt;&lt;font face=&quot;Comic Sans MS&quot;&gt;CustomerPreference&lt;/font&gt;" style="swimlane;fontStyle=1;align=center;verticalAlign=top;childLayout=stackLayout;horizontal=1;startSize=26;horizontalStack=0;resizeParent=1;resizeParentMax=0;resizeLast=0;collapsible=1;marginBottom=0;whiteSpace=wrap;html=1;fillColor=#ffe6cc;strokeColor=#d79b00;sketch=1;curveFitting=1;jiggle=2;shadow=1;" parent="1" vertex="1">
          <mxGeometry x="335" y="644" width="178" height="86" as="geometry">
            <mxRectangle x="74" y="291" width="95" height="26" as="alternateBounds" />
          </mxGeometry>
        </mxCell>
        <mxCell id="l-SgXU7na3cR4uzJKPwT-53" value="&lt;img height=&quot;16&quot; width=&quot;16&quot; src=&quot;data:image/png;base64,iVBORw0KGgoAAAANSUhEUgAAABAAAAAQCAYAAAAf8/9hAAAABHNCSVQICAgIfAhkiAAAAAlwSFlzAAAOxAAADsQBlSsOGwAAABl0RVh0U29mdHdhcmUAd3d3Lmlua3NjYXBlLm9yZ5vuPBoAAAFVSURBVDiNtZK9TgJREEbPXBbF2FpZ+gQWVtbGWFgYYE1khWjiCxhrE21tLP1phIaCNRiJhb6FFlY+ALGRmIAFsHdsFrxkMYEYv2pmzp2ZLzcDf5QA+De15Sglh6LMAagSYfSpXtouA+TL4b6FdRFScd+XNanzu2L2xQOwRo5E2R1OFUBlCygDqHAhMOtuNtYaoGTifATGyjjxGK4ZAJME02kwQMcw+0scS6wzQJ6AjkMjgfthptoAIod3VOzj9H7/QwKQL4eBClfAfFyPVAnre/6O+zhXCa976d5xo1B4H9QMgIVNpxkgJUJ+zMLVdHdmwS14AM6FJRhAthJeCqwAS6C1bCVsZ7zuRjUIWt6YxqSMOTVRtGiN1EQ4MUZfq0HQ+tmi0kESp9AeBPVirgk0c5XwU60835b8txGb1vTPjPVAdPAPfRV9SBjp6Vp44H9M5HpSfQPboW2GgFUougAAAABJRU5ErkJggg==&quot;&gt;&amp;nbsp;&lt;font face=&quot;Comic Sans MS&quot;&gt;Customer&lt;/font&gt;" style="text;strokeColor=none;fillColor=none;align=left;verticalAlign=top;spacingLeft=4;spacingRight=4;overflow=hidden;rotatable=0;points=[[0,0.5],[1,0.5]];portConstraint=eastwest;whiteSpace=wrap;html=1;" parent="l-SgXU7na3cR4uzJKPwT-45" vertex="1">
          <mxGeometry y="26" width="178" height="30" as="geometry" />
        </mxCell>
        <mxCell id="l-SgXU7na3cR4uzJKPwT-52" value="&lt;img height=&quot;16&quot; width=&quot;16&quot; src=&quot;data:image/png;base64,iVBORw0KGgoAAAANSUhEUgAAABAAAAAQCAYAAAAf8/9hAAAABHNCSVQICAgIfAhkiAAAAAlwSFlzAAAOxAAADsQBlSsOGwAAABl0RVh0U29mdHdhcmUAd3d3Lmlua3NjYXBlLm9yZ5vuPBoAAAFVSURBVDiNtZK9TgJREEbPXBbF2FpZ+gQWVtbGWFgYYE1khWjiCxhrE21tLP1phIaCNRiJhb6FFlY+ALGRmIAFsHdsFrxkMYEYv2pmzp2ZLzcDf5QA+De15Sglh6LMAagSYfSpXtouA+TL4b6FdRFScd+XNanzu2L2xQOwRo5E2R1OFUBlCygDqHAhMOtuNtYaoGTifATGyjjxGK4ZAJME02kwQMcw+0scS6wzQJ6AjkMjgfthptoAIod3VOzj9H7/QwKQL4eBClfAfFyPVAnre/6O+zhXCa976d5xo1B4H9QMgIVNpxkgJUJ+zMLVdHdmwS14AM6FJRhAthJeCqwAS6C1bCVsZ7zuRjUIWt6YxqSMOTVRtGiN1EQ4MUZfq0HQ+tmi0kESp9AeBPVirgk0c5XwU60835b8txGb1vTPjPVAdPAPfRV9SBjp6Vp44H9M5HpSfQPboW2GgFUougAAAABJRU5ErkJggg==&quot;&gt;&amp;nbsp;&lt;font face=&quot;Comic Sans MS&quot;&gt;Preference&lt;/font&gt;" style="text;strokeColor=none;fillColor=none;align=left;verticalAlign=top;spacingLeft=4;spacingRight=4;overflow=hidden;rotatable=0;points=[[0,0.5],[1,0.5]];portConstraint=eastwest;whiteSpace=wrap;html=1;" parent="l-SgXU7na3cR4uzJKPwT-45" vertex="1">
          <mxGeometry y="56" width="178" height="30" as="geometry" />
        </mxCell>
        <mxCell id="l-SgXU7na3cR4uzJKPwT-54" style="edgeStyle=orthogonalEdgeStyle;curved=1;rounded=0;sketch=1;jiggle=2;curveFitting=1;orthogonalLoop=1;jettySize=auto;html=1;entryX=0.75;entryY=0;entryDx=0;entryDy=0;shadow=1;strokeColor=default;strokeWidth=1;align=center;verticalAlign=middle;fontFamily=Helvetica;fontSize=11;fontColor=default;labelBackgroundColor=default;endArrow=classic;flowAnimation=0;" parent="1" source="l-SgXU7na3cR4uzJKPwT-53" target="l-SgXU7na3cR4uzJKPwT-21" edge="1">
          <mxGeometry relative="1" as="geometry" />
        </mxCell>
        <mxCell id="l-SgXU7na3cR4uzJKPwT-55" style="edgeStyle=orthogonalEdgeStyle;curved=1;rounded=0;sketch=1;jiggle=2;curveFitting=1;orthogonalLoop=1;jettySize=auto;html=1;entryX=0.75;entryY=0;entryDx=0;entryDy=0;shadow=1;strokeColor=default;strokeWidth=1;align=center;verticalAlign=middle;fontFamily=Helvetica;fontSize=11;fontColor=default;labelBackgroundColor=default;endArrow=classic;flowAnimation=0;" parent="1" source="l-SgXU7na3cR4uzJKPwT-52" target="l-SgXU7na3cR4uzJKPwT-27" edge="1">
          <mxGeometry relative="1" as="geometry" />
        </mxCell>
        <mxCell id="l-SgXU7na3cR4uzJKPwT-57" value="&lt;div&gt;&lt;br&gt;&lt;/div&gt;&lt;span style=&quot;font-size: 24px; font-family: &amp;quot;Comic Sans MS&amp;quot;; font-style: inherit; font-variant-ligatures: inherit; font-variant-caps: inherit; font-weight: inherit; color: rgb(5, 5, 5);&quot;&gt;7)&lt;span style=&quot;white-space: pre;&quot;&gt;&#x9;&lt;/span&gt;В качестве дополнительного задания реализовать методы PromoCodesController. Метод GivePromocodesToCustomersWithPreferenceAsync должен сохранять новый промокод в базе данных и находить клиентов с переданным предпочтением и добавлять им данный промокод. GetPromocodesAsync - здесь даты передаются строками, чтобы не было проблем с часовыми поясами&lt;/span&gt;&lt;div&gt;&lt;br/&gt;&lt;/div&gt;" style="text;html=1;align=left;verticalAlign=middle;whiteSpace=wrap;rounded=0;fontFamily=Helvetica;fontSize=11;fontColor=default;labelBackgroundColor=default;" parent="1" vertex="1">
          <mxGeometry x="748" y="1583" width="1244" height="146" as="geometry" />
        </mxCell>
        <mxCell id="l-SgXU7na3cR4uzJKPwT-58" value="&lt;font face=&quot;Comic Sans MS&quot; style=&quot;font-size: 24px;&quot;&gt;&lt;span style=&quot;font-style: inherit; font-variant-ligatures: inherit; font-variant-caps: inherit; font-weight: inherit; color: rgb(5, 5, 5);&quot;&gt;4)&lt;span style=&quot;white-space: pre;&quot;&gt;&#x9;&lt;/span&gt;Настроить маппинг классов Employee, Roles, Customer,Preference и PromoCode на базу данных через EF. Обратить внимание, что PromoCode имеет ссылку на Preference и Employee имеет ссылку на Role. Customer имеет набор Preference, но так как Preference - это общий справочник и сущности связаны через Many-to-many, то нужно сделать маппинг через сущность CustomerPreference. Строковые поля должны иметь ограничения на MaxLength. Связь Customer и Promocode реализовать через One-To-Many, будем считать, что в данном примере промокод может быть выдан только одному клиенту из базы.&lt;/span&gt;&lt;br&gt;&lt;/font&gt;&lt;font face=&quot;Comic Sans MS&quot; color=&quot;#050505&quot;&gt;&lt;span style=&quot;font-size: 24px;&quot;&gt;&lt;br&gt;&lt;/span&gt;&lt;/font&gt;" style="text;html=1;align=left;verticalAlign=middle;whiteSpace=wrap;rounded=0;fontFamily=Helvetica;fontSize=11;fontColor=default;labelBackgroundColor=default;" parent="1" vertex="1">
          <mxGeometry x="767" y="940" width="1244" height="237" as="geometry" />
        </mxCell>
        <mxCell id="l-SgXU7na3cR4uzJKPwT-59" value="&lt;span style=&quot;font-size: 24px; font-family: &amp;quot;Comic Sans MS&amp;quot;; font-style: inherit; font-variant-ligatures: inherit; font-variant-caps: inherit; font-weight: inherit; color: rgb(5, 5, 5);&quot;&gt;1)&lt;span style=&quot;white-space: pre;&quot;&gt;&#x9;&lt;/span&gt;Добавить Entity Framework Core в DataAccess проект и сделать реализацию IRepository в виде EfRepository, которая будет работать с DataContext Entity Framework.&lt;/span&gt;&lt;br&gt;&lt;span style=&quot;font-size: 24px; font-family: &amp;quot;Comic Sans MS&amp;quot;; font-style: inherit; font-variant-ligatures: inherit; font-variant-caps: inherit; font-weight: inherit; color: rgb(5, 5, 5);&quot;&gt;2)&lt;span style=&quot;white-space: pre;&quot;&gt;&#x9;&lt;/span&gt;Добавить SQLite в качестве БД&lt;/span&gt;&lt;br&gt;&lt;span style=&quot;font-size: 24px; font-family: &amp;quot;Comic Sans MS&amp;quot;; font-style: inherit; font-variant-ligatures: inherit; font-variant-caps: inherit; font-weight: inherit; color: rgb(5, 5, 5);&quot;&gt;3)&lt;span style=&quot;white-space: pre;&quot;&gt;&#x9;&lt;/span&gt;База должна удаляться и создаваться каждый раз, заполняясь тестовыми данными из FakeDataFactory.&lt;/span&gt;" style="text;html=1;align=left;verticalAlign=middle;whiteSpace=wrap;rounded=0;fontFamily=Helvetica;fontSize=11;fontColor=default;labelBackgroundColor=default;" parent="1" vertex="1">
          <mxGeometry x="760" y="720" width="1244" height="166" as="geometry" />
        </mxCell>
        <mxCell id="l-SgXU7na3cR4uzJKPwT-60" value="&lt;font style=&quot;font-size: 16px;&quot; face=&quot;Comic Sans MS&quot;&gt;1&lt;/font&gt;" style="text;html=1;align=center;verticalAlign=middle;resizable=0;points=[];autosize=1;strokeColor=none;fillColor=none;fontFamily=Helvetica;fontSize=11;fontColor=default;labelBackgroundColor=default;" parent="1" vertex="1">
          <mxGeometry x="354" y="1212" width="25" height="31" as="geometry" />
        </mxCell>
        <mxCell id="l-SgXU7na3cR4uzJKPwT-61" value="&lt;font face=&quot;Comic Sans MS&quot;&gt;&lt;span style=&quot;font-size: 16px;&quot;&gt;N&lt;/span&gt;&lt;/font&gt;" style="text;html=1;align=center;verticalAlign=middle;resizable=0;points=[];autosize=1;strokeColor=none;fillColor=none;fontFamily=Helvetica;fontSize=11;fontColor=default;labelBackgroundColor=default;" parent="1" vertex="1">
          <mxGeometry x="408.5" y="1238" width="31" height="31" as="geometry" />
        </mxCell>
        <mxCell id="l-SgXU7na3cR4uzJKPwT-62" value="&lt;font style=&quot;font-size: 16px;&quot; face=&quot;Comic Sans MS&quot;&gt;1&lt;/font&gt;" style="text;html=1;align=center;verticalAlign=middle;resizable=0;points=[];autosize=1;strokeColor=none;fillColor=none;fontFamily=Helvetica;fontSize=11;fontColor=default;labelBackgroundColor=default;" parent="1" vertex="1">
          <mxGeometry x="101" y="983" width="25" height="31" as="geometry" />
        </mxCell>
        <mxCell id="l-SgXU7na3cR4uzJKPwT-63" value="&lt;font face=&quot;Comic Sans MS&quot;&gt;&lt;span style=&quot;font-size: 16px;&quot;&gt;N&lt;/span&gt;&lt;/font&gt;" style="text;html=1;align=center;verticalAlign=middle;resizable=0;points=[];autosize=1;strokeColor=none;fillColor=none;fontFamily=Helvetica;fontSize=11;fontColor=default;labelBackgroundColor=default;" parent="1" vertex="1">
          <mxGeometry x="126" y="1091" width="31" height="31" as="geometry" />
        </mxCell>
        <mxCell id="l-SgXU7na3cR4uzJKPwT-66" value="&lt;font style=&quot;font-size: 16px;&quot; face=&quot;Comic Sans MS&quot;&gt;1&lt;/font&gt;" style="text;html=1;align=center;verticalAlign=middle;resizable=0;points=[];autosize=1;strokeColor=none;fillColor=none;fontFamily=Helvetica;fontSize=11;fontColor=default;labelBackgroundColor=default;" parent="1" vertex="1">
          <mxGeometry x="310" y="651" width="25" height="31" as="geometry" />
        </mxCell>
        <mxCell id="l-SgXU7na3cR4uzJKPwT-68" value="&lt;font style=&quot;font-size: 16px;&quot; face=&quot;Comic Sans MS&quot;&gt;1&lt;/font&gt;" style="text;html=1;align=center;verticalAlign=middle;resizable=0;points=[];autosize=1;strokeColor=none;fillColor=none;fontFamily=Helvetica;fontSize=11;fontColor=default;labelBackgroundColor=default;" parent="1" vertex="1">
          <mxGeometry x="522" y="691" width="25" height="31" as="geometry" />
        </mxCell>
        <mxCell id="l-SgXU7na3cR4uzJKPwT-71" value="&lt;font style=&quot;font-size: 16px;&quot; face=&quot;Comic Sans MS&quot;&gt;1&lt;/font&gt;" style="text;html=1;align=center;verticalAlign=middle;resizable=0;points=[];autosize=1;strokeColor=none;fillColor=none;fontFamily=Helvetica;fontSize=11;fontColor=default;labelBackgroundColor=default;" parent="1" vertex="1">
          <mxGeometry x="278" y="851" width="25" height="31" as="geometry" />
        </mxCell>
        <mxCell id="l-SgXU7na3cR4uzJKPwT-73" value="&lt;font style=&quot;font-size: 16px;&quot; face=&quot;Comic Sans MS&quot;&gt;1&lt;/font&gt;" style="text;html=1;align=center;verticalAlign=middle;resizable=0;points=[];autosize=1;strokeColor=none;fillColor=none;fontFamily=Helvetica;fontSize=11;fontColor=default;labelBackgroundColor=default;" parent="1" vertex="1">
          <mxGeometry x="326" y="1049" width="25" height="31" as="geometry" />
        </mxCell>
        <mxCell id="l-SgXU7na3cR4uzJKPwT-74" value="&lt;font face=&quot;Comic Sans MS&quot;&gt;&lt;span style=&quot;font-size: 16px;&quot;&gt;N&lt;/span&gt;&lt;/font&gt;" style="text;html=1;align=center;verticalAlign=middle;resizable=0;points=[];autosize=1;strokeColor=none;fillColor=none;fontFamily=Helvetica;fontSize=11;fontColor=default;labelBackgroundColor=default;" parent="1" vertex="1">
          <mxGeometry x="421" y="826" width="31" height="31" as="geometry" />
        </mxCell>
        <mxCell id="l-SgXU7na3cR4uzJKPwT-75" value="&lt;font face=&quot;Comic Sans MS&quot;&gt;&lt;span style=&quot;font-size: 16px;&quot;&gt;N&lt;/span&gt;&lt;/font&gt;" style="text;html=1;align=center;verticalAlign=middle;resizable=0;points=[];autosize=1;strokeColor=none;fillColor=none;fontFamily=Helvetica;fontSize=11;fontColor=default;labelBackgroundColor=default;" parent="1" vertex="1">
          <mxGeometry x="229" y="804" width="31" height="31" as="geometry" />
        </mxCell>
        <mxCell id="l-SgXU7na3cR4uzJKPwT-76" value="&lt;font face=&quot;Comic Sans MS&quot;&gt;&lt;span style=&quot;font-size: 16px;&quot;&gt;N&lt;/span&gt;&lt;/font&gt;" style="text;html=1;align=center;verticalAlign=middle;resizable=0;points=[];autosize=1;strokeColor=none;fillColor=none;fontFamily=Helvetica;fontSize=11;fontColor=default;labelBackgroundColor=default;" parent="1" vertex="1">
          <mxGeometry x="139" y="634" width="31" height="31" as="geometry" />
        </mxCell>
        <mxCell id="l-SgXU7na3cR4uzJKPwT-77" value="&lt;font face=&quot;Comic Sans MS&quot;&gt;&lt;span style=&quot;font-size: 16px;&quot;&gt;N&lt;/span&gt;&lt;/font&gt;" style="text;html=1;align=center;verticalAlign=middle;resizable=0;points=[];autosize=1;strokeColor=none;fillColor=none;fontFamily=Helvetica;fontSize=11;fontColor=default;labelBackgroundColor=default;" parent="1" vertex="1">
          <mxGeometry x="547" y="839" width="31" height="31" as="geometry" />
        </mxCell>
        <mxCell id="l-SgXU7na3cR4uzJKPwT-78" value="&lt;div&gt;&lt;font face=&quot;Comic Sans MS&quot; color=&quot;#050505&quot;&gt;&lt;span style=&quot;font-size: 24px;&quot;&gt;&lt;br&gt;&lt;/span&gt;&lt;/font&gt;&lt;/div&gt;&lt;span style=&quot;font-size: 24px; font-family: &amp;quot;Comic Sans MS&amp;quot;; font-style: inherit; font-variant-ligatures: inherit; font-variant-caps: inherit; font-weight: inherit; color: rgb(5, 5, 5);&quot;&gt;5)&lt;span style=&quot;white-space: pre;&quot;&gt;&#x9;&lt;/span&gt;Реализовать CRUD операции для CustomersController через репозиторий EF, нужно добавить новый Generic класс EfRepository. Получение списка, получение одного клиента, создание/редактирование и удаление, при удалении также нужно удалить ранее выданные промокоды клиента. Методы должны иметь xml комментарии для описания в Swagger. CustomerResponse также должен возвращать список предпочтений клиента с той же моделью PrefernceResponse&lt;/span&gt;" style="text;html=1;align=left;verticalAlign=middle;whiteSpace=wrap;rounded=0;fontFamily=Helvetica;fontSize=11;fontColor=default;labelBackgroundColor=default;" parent="1" vertex="1">
          <mxGeometry x="767" y="1206" width="1244" height="105" as="geometry" />
        </mxCell>
        <mxCell id="BhiEXyNFcGyxbzjdKHLK-1" value="&lt;div&gt;&lt;br&gt;&lt;/div&gt;&lt;span style=&quot;font-size: 24px; font-family: &amp;quot;Comic Sans MS&amp;quot;; font-style: inherit; font-variant-ligatures: inherit; font-variant-caps: inherit; font-weight: inherit; color: rgb(5, 5, 5);&quot;&gt;6)&lt;span style=&quot;white-space: pre;&quot;&gt;&#x9;&lt;/span&gt;Нужно реализовать контроллер, который возвращает список предпочтений (Preference) в виде PrefernceResponse модели из базы данных. Метод должен иметь xml комментарии для описания в Swagger.&lt;/span&gt;&lt;div&gt;&lt;br/&gt;&lt;/div&gt;" style="text;html=1;align=left;verticalAlign=middle;whiteSpace=wrap;rounded=0;fontFamily=Helvetica;fontSize=11;fontColor=default;labelBackgroundColor=default;" vertex="1" parent="1">
          <mxGeometry x="872" y="1411" width="1244" height="111" as="geometry" />
        </mxCell>
        <mxCell id="BhiEXyNFcGyxbzjdKHLK-2" value="&lt;div&gt;&lt;br&gt;&lt;/div&gt;&lt;span style=&quot;font-size: 24px; font-family: &amp;quot;Comic Sans MS&amp;quot;; font-style: inherit; font-variant-ligatures: inherit; font-variant-caps: inherit; font-weight: inherit; color: rgb(5, 5, 5);&quot;&gt;8)&lt;span style=&quot;white-space: pre;&quot;&gt;&#x9;&lt;/span&gt;В качестве дополнительного задания реализовать две миграции: начальную миграцию и миграцию с изменением любого поля на выбор, в этом случае удаление на каждый запуск уже не должно происходить&lt;/span&gt;" style="text;html=1;align=left;verticalAlign=middle;whiteSpace=wrap;rounded=0;fontFamily=Helvetica;fontSize=11;fontColor=default;labelBackgroundColor=default;" vertex="1" parent="1">
          <mxGeometry x="931" y="1884" width="1244" height="97" as="geometry" />
        </mxCell>
      </root>
    </mxGraphModel>
  </diagram>
</mxfile>
